<svg width="24" height="24" viewBox="0 0 24 24" fill="none" xmlns="http://www.w3.org/2000/svg">
<path d="M13.5332 11.979L15.7793 14.5463L18.7995 16.4764L19.3261 11.9948L18.7995 7.61328L15.7213 9.30903L13.5332 11.979Z" fill="#00832D"/>
<path d="M0.5 16.0595V19.8775C0.5 20.7504 1.207 21.4574 2.07989 21.4574H5.89794L6.68789 18.5715L5.89794 16.0595L3.27797 15.2695L0.5 16.0595Z" fill="#0066DA"/>
<path d="M5.89794 2.5L0.5 7.89794L3.27797 8.68789L5.89794 7.89794L6.67472 5.42016L5.89794 2.5Z" fill="#E94235"/>
<path d="M5.89794 7.89648H0.5V16.0592H5.89794V7.89648Z" fill="#2684FC"/>
<path d="M22.2503 4.7861L18.8008 7.6141V16.4773L22.2661 19.3184C22.7848 19.7239 23.5431 19.354 23.5431 18.6944V5.39699C23.5431 4.72949 22.7677 4.36348 22.2503 4.7861ZM13.5346 11.9798V16.0612H5.89844V21.4592H17.221C18.0938 21.4592 18.8008 20.7522 18.8008 19.8793V16.4773L13.5346 11.9798Z" fill="#00AC47"/>
<path d="M17.221 2.5H5.89844V7.89794H13.5346V11.9793L18.8008 7.6162V4.07989C18.8008 3.207 18.0938 2.5 17.221 2.5Z" fill="#FFBA00"/>
</svg>
