<svg width="48" height="48" viewBox="0 0 48 48" fill="none" xmlns="http://www.w3.org/2000/svg">
<path d="M40.6667 4H13.1667C12.2826 4 11.4348 4.35119 10.8096 4.97631C10.1845 5.60143 9.83333 6.44928 9.83333 7.33333V34.8333C9.83333 35.7174 10.1845 36.5652 10.8096 37.1904C11.4348 37.8155 12.2826 38.1667 13.1667 38.1667H40.6667C41.5507 38.1667 42.3986 37.8155 43.0237 37.1904C43.6488 36.5652 44 35.7174 44 34.8333V7.33333C44 6.44928 43.6488 5.60143 43.0237 4.97631C42.3986 4.35119 41.5507 4 40.6667 4ZM20.1117 24.7283C20.242 24.4673 20.4387 24.245 20.6819 24.0837C20.9252 23.9225 21.2065 23.828 21.4977 23.8096C21.789 23.7912 22.0799 23.8496 22.3415 23.9789C22.6031 24.1083 22.8261 24.3041 22.9883 24.5467L24.3733 26.6233C24.4132 26.6831 24.4679 26.7316 24.532 26.764C24.5962 26.7964 24.6676 26.8117 24.7394 26.8084C24.8112 26.805 24.8809 26.7831 24.9418 26.7449C25.0026 26.7066 25.0525 26.6533 25.0867 26.59L29.1483 19.045C29.2915 18.7692 29.5105 18.54 29.7794 18.3845C30.0484 18.2289 30.3562 18.1533 30.6667 18.1667C30.975 18.1753 31.2748 18.2693 31.5329 18.4382C31.7909 18.6071 31.9971 18.8442 32.1283 19.1233L38.0917 31.79C38.1528 31.9175 38.1804 32.0585 38.172 32.1997C38.1635 32.3409 38.1193 32.4776 38.0435 32.597C37.9676 32.7163 37.8626 32.8144 37.7384 32.882C37.6142 32.9496 37.4748 32.9845 37.3333 32.9833H17.3333C17.1912 32.9833 17.0515 32.947 16.9274 32.8778C16.8033 32.8085 16.6989 32.7087 16.6243 32.5878C16.5496 32.4669 16.5071 32.3289 16.5008 32.1869C16.4946 32.0449 16.5247 31.9037 16.5883 31.7767L20.1117 24.7283ZM16.9167 14.4167C16.9167 13.7574 17.1122 13.1129 17.4784 12.5648C17.8447 12.0166 18.3653 11.5894 18.9744 11.3371C19.5835 11.0848 20.2537 11.0188 20.9003 11.1474C21.5469 11.276 22.1408 11.5935 22.607 12.0596C23.0732 12.5258 23.3907 13.1198 23.5193 13.7664C23.6479 14.413 23.5819 15.0832 23.3296 15.6923C23.0773 16.3014 22.6501 16.822 22.1019 17.1882C21.5537 17.5545 20.9093 17.75 20.25 17.75C19.3659 17.75 18.5181 17.3988 17.893 16.7737C17.2679 16.1486 16.9167 15.3007 16.9167 14.4167Z" fill="#EABEE7"/>
<path d="M36.5 40.6667H8.16667C7.94565 40.6667 7.73369 40.5789 7.57741 40.4226C7.42113 40.2663 7.33333 40.0543 7.33333 39.8333V11.5C7.33333 11.058 7.15774 10.634 6.84518 10.3215C6.53262 10.0089 6.10869 9.83333 5.66667 9.83333C5.22464 9.83333 4.80072 10.0089 4.48816 10.3215C4.17559 10.634 4 11.058 4 11.5V40.6667C4 41.5507 4.35119 42.3986 4.97631 43.0237C5.60143 43.6488 6.44928 44 7.33333 44H36.5C36.942 44 37.366 43.8244 37.6785 43.5118C37.9911 43.1993 38.1667 42.7754 38.1667 42.3333C38.1667 41.8913 37.9911 41.4674 37.6785 41.1548C37.366 40.8423 36.942 40.6667 36.5 40.6667Z" fill="#EABEE7"/>
</svg>
